<mxfile host="app.diagrams.net" modified="2023-10-03T09:53:57.611Z" agent="Mozilla/5.0 (Windows NT 10.0; Win64; x64) AppleWebKit/537.36 (KHTML, like Gecko) Chrome/117.0.0.0 Safari/537.36" version="22.0.1" etag="sPqwSyaNa4Ss-1BpJfMl" type="github">
  <diagram name="Страница — 1" id="eGwO5Dli1QxZ516OoQSd">
    <mxGraphModel>
      <root>
        <mxCell id="0" />
        <mxCell id="1" parent="0" />
      </root>
    </mxGraphModel>
  </diagram>
</mxfile>
